<svg xmlns="http://www.w3.org/2000/svg" xmlns:xlink="http://www.w3.org/1999/xlink" width="500" zoomAndPan="magnify" viewBox="0 0 375 374.999991" height="500" preserveAspectRatio="xMidYMid meet" version="1.0"><defs><g/></defs><g fill="#000000" fill-opacity="1"><g transform="translate(50.885451, 203.255187)"><g><path d="M 20.75 0.757812 C 24.164062 0.757812 27.8125 0.191406 31.648438 -0.898438 L 30.984375 -5.96875 C 28.570312 -4.121094 25.441406 -0.238281 22.882812 -0.238281 C 14.972656 -0.238281 9.238281 -7.863281 9.238281 -16.441406 C 9.238281 -27.050781 14.117188 -33.117188 22.695312 -33.117188 C 25.253906 -33.117188 27.90625 -29.800781 31.175781 -27.335938 L 31.648438 -32.214844 C 27.90625 -33.496094 24.164062 -34.160156 20.65625 -34.160156 C 10.140625 -34.160156 1.660156 -28.191406 1.660156 -16.441406 C 1.660156 -5.210938 9.617188 0.757812 20.75 0.757812 Z M 20.75 0.757812 "/></g></g></g><g fill="#000000" fill-opacity="1"><g transform="translate(82.76335, 203.255187)"><g/></g></g><g fill="#000000" fill-opacity="1"><g transform="translate(92.852306, 203.255187)"><g><path d="M 9.949219 -18.289062 L 25.253906 -18.289062 L 25.253906 -19.140625 L 9.949219 -19.140625 L 9.949219 -32.453125 C 19.140625 -32.453125 23.453125 -31.316406 28.191406 -28.519531 L 28.191406 -33.257812 L 2.367188 -33.257812 L 2.367188 0 L 28.898438 0 L 28.898438 -4.738281 C 23.6875 -1.5625 19.046875 -0.851562 9.949219 -0.851562 Z M 9.949219 -18.289062 "/></g></g></g><g fill="#000000" fill-opacity="1"><g transform="translate(123.214447, 203.255187)"><g/></g></g><g fill="#000000" fill-opacity="1"><g transform="translate(133.303403, 203.255187)"><g><path d="M 26.105469 0 L 26.105469 -4.738281 C 21.035156 -1.800781 17.101562 -0.804688 9.949219 -0.804688 L 9.949219 -33.257812 L 2.367188 -33.257812 L 2.367188 0 Z M 26.105469 0 "/></g></g></g><g fill="#000000" fill-opacity="1"><g transform="translate(159.970893, 203.255187)"><g/></g></g><g fill="#000000" fill-opacity="1"><g transform="translate(170.059844, 203.255187)"><g><path d="M 9.949219 -18.289062 L 25.253906 -18.289062 L 25.253906 -19.140625 L 9.949219 -19.140625 L 9.949219 -32.453125 C 19.140625 -32.453125 23.453125 -31.316406 28.191406 -28.519531 L 28.191406 -33.257812 L 2.367188 -33.257812 L 2.367188 0 L 28.898438 0 L 28.898438 -4.738281 C 23.6875 -1.5625 19.046875 -0.851562 9.949219 -0.851562 Z M 9.949219 -18.289062 "/></g></g></g><g fill="#000000" fill-opacity="1"><g transform="translate(200.421979, 203.255187)"><g/></g></g><g fill="#000000" fill-opacity="1"><g transform="translate(210.510929, 203.255187)"><g><path d="M 15.585938 0.710938 C 24.683594 0.710938 30.796875 -2.890625 30.605469 -9.238281 C 30.367188 -19.234375 6.964844 -22.644531 6.773438 -28.570312 C 6.679688 -31.835938 10.089844 -33.023438 14.164062 -33.023438 C 17.671875 -33.023438 22.882812 -31.269531 28.617188 -27.429688 L 28.996094 -32.167969 C 24.636719 -33.402344 20.183594 -34.0625 16.203125 -34.0625 C 7.816406 -34.0625 0.898438 -31.316406 1.042969 -25.582031 C 1.277344 -17.578125 21.226562 -15.398438 23.832031 -8.101562 C 25.253906 -4.027344 21.886719 -0.378906 16.628906 -0.378906 C 12.839844 -0.378906 7.722656 -2.179688 1.800781 -6.539062 L 1.46875 -1.800781 C 6.492188 -0.09375 11.277344 0.710938 15.585938 0.710938 Z M 15.585938 0.710938 "/></g></g></g><g fill="#000000" fill-opacity="1"><g transform="translate(242.530924, 203.255187)"><g/></g></g><g fill="#000000" fill-opacity="1"><g transform="translate(252.619874, 203.255187)"><g><path d="M 19.425781 0 L 19.425781 -32.453125 C 24.683594 -32.453125 27.289062 -31.078125 30.558594 -28.519531 L 30.558594 -33.257812 L 0.710938 -33.257812 L 0.710938 -28.519531 C 4.027344 -31.078125 6.773438 -32.453125 11.84375 -32.453125 L 11.84375 0 Z M 19.425781 0 "/></g></g></g><g fill="#000000" fill-opacity="1"><g transform="translate(282.839919, 203.255187)"><g/></g></g><g fill="#000000" fill-opacity="1"><g transform="translate(292.92887, 203.255187)"><g><path d="M 9.949219 -18.289062 L 25.253906 -18.289062 L 25.253906 -19.140625 L 9.949219 -19.140625 L 9.949219 -32.453125 C 19.140625 -32.453125 23.453125 -31.316406 28.191406 -28.519531 L 28.191406 -33.257812 L 2.367188 -33.257812 L 2.367188 0 L 28.898438 0 L 28.898438 -4.738281 C 23.6875 -1.5625 19.046875 -0.851562 9.949219 -0.851562 Z M 9.949219 -18.289062 "/></g></g></g></svg>